<svg xmlns="http://www.w3.org/2000/svg" viewBox="0 0 418.75 453.88"><g id="레이어_2" data-name="레이어 2"><g id="Mail_Icon" data-name="Mail Icon"><path d="M386,233.9a29,29,0,1,1,13.31-31.38A28.83,28.83,0,0,1,386,233.9Z" style="fill:#ebebeb"/><path d="M379.92,205.85a8.82,8.82,0,1,1-8.71-8.93A8.81,8.81,0,0,1,379.92,205.85Z" style="fill:#fff"/><path d="M386.06,230.26,386,233.9a29,29,0,0,1-30.48-.38l0-3.63a15.25,15.25,0,0,1,30.49.37Z" style="fill:#fff"/><path d="M60,147.59A19,19,0,1,1,68.68,127,19,19,0,0,1,60,147.59Z" style="fill:#ebebeb"/><path d="M56,129.21a5.78,5.78,0,1,1-5.71-5.84A5.78,5.78,0,0,1,56,129.21Z" style="fill:#fff"/><path d="M60,145.2l0,2.39a19,19,0,0,1-20-.25L40,145a10,10,0,1,1,20,.23Z" style="fill:#fff"/><rect x="18.68" y="64.18" width="125.64" height="85.64" style="fill:none;stroke:#ebebeb;stroke-miterlimit:10"/><path d="M28.08,69.26a2.52,2.52,0,1,1-2.52-2.52A2.52,2.52,0,0,1,28.08,69.26Z" style="fill:#a6a6a6"/><path d="M38.37,69.26a2.52,2.52,0,1,1-2.52-2.52A2.51,2.51,0,0,1,38.37,69.26Z" style="fill:#ebebeb"/><path d="M48.67,69.26a2.52,2.52,0,1,1-2.52-2.52A2.52,2.52,0,0,1,48.67,69.26Z" style="fill:#ffc727"/><line x1="18.68" y1="74.2" x2="144.32" y2="74.2" style="fill:none;stroke:#ebebeb;stroke-miterlimit:10"/><rect x="32.57" y="177.37" width="66.59" height="42.23" transform="translate(-26.21 10.72) rotate(-7.77)" style="fill:#ebebeb"/><path d="M96,173.07c-2.32,2.91-4.7,5.72-7,8.59s-4.75,5.65-7.15,8.45-5,5.82-7.52,8.7c-.08.1-.14.19-.22.28l-6.7,7.63-.34.36-.41-.26q-4.25-2.77-8.49-5.57l-.3-.19c-3.2-2.11-6.4-4.23-9.59-6.39s-6.09-4.12-9.13-6.21S33,184.25,30,182.06c3.13,1.8,6.23,3.71,9.34,5.57s6.21,3.8,9.3,5.74q5.16,3.21,10.33,6.53h0l7.73,5c2-2.29,4.07-4.58,6.11-6.84,0,0,0,0,0,0q4.08-4.56,8.2-9.06,3.69-4,7.42-8C91,178.31,93.47,175.64,96,173.07Z" style="fill:#fff"/><path d="M59.22,200.84a.27.27,0,0,0-.07.08l-.92,1c-1.47,1.62-3,3.19-4.53,4.73-1.88,1.89-3.82,3.72-5.77,5.54s-3.94,3.57-6,5.3-4.09,3.44-6.25,5c1.77-2,3.62-3.94,5.51-5.82S45,213,47,211.18s4-3.59,6-5.32c1.62-1.38,3.27-2.75,5-4.05.39-.31.78-.6,1.19-.9Z" style="fill:#fff"/><path d="M101.37,213.59c-2.51-1-5-2.05-7.37-3.17s-4.81-2.32-7.19-3.52-4.73-2.47-7-3.79c-1.89-1.06-3.76-2.16-5.6-3.33L73,199,72.9,199l.11,0,1.38.55c2,.8,3.94,1.68,5.88,2.58,2.42,1.12,4.8,2.31,7.18,3.52s4.73,2.47,7,3.79S99.13,212.11,101.37,213.59Z" style="fill:#fff"/><rect x="302.71" y="62.24" width="81.66" height="51.79" style="fill:#ebebeb"/><path d="M384.38,62.24c-3.3,3.15-6.66,6.17-10,9.28s-6.7,6.07-10.08,9.08-7.05,6.24-10.58,9.32l-.32.3q-4.7,4.09-9.41,8.17l-.46.38-.46-.38q-4.69-4.08-9.39-8.18l-.33-.29q-5.31-4.62-10.6-9.34c-3.36-3-6.72-6-10.06-9.06s-6.69-6.13-10-9.28c3.51,2.7,7,5.54,10.43,8.31s6.91,5.64,10.35,8.51q5.73,4.75,11.46,9.65h0q4.29,3.63,8.57,7.3c2.85-2.44,5.7-4.89,8.56-7.3,0,0,0,0,0,0,3.82-3.24,7.63-6.46,11.47-9.65q5.14-4.28,10.34-8.49C377.42,67.78,380.87,64.94,384.38,62.24Z" style="fill:#fff"/><path d="M335.08,89.89S335,90,335,90c-.43.37-.86.74-1.29,1.09q-3.07,2.59-6.28,5c-2.6,2-5.26,3.89-7.93,5.78s-5.39,3.69-8.15,5.46-5.54,3.49-8.42,5.07c2.48-2.17,5-4.19,7.65-6.16s5.28-3.89,7.94-5.78,5.39-3.7,8.15-5.47c2.2-1.41,4.43-2.8,6.71-4.1.53-.3,1.05-.6,1.59-.89Z" style="fill:#fff"/><path d="M384.18,112.36c-2.88-1.58-5.68-3.31-8.43-5.07s-5.45-3.61-8.15-5.46-5.34-3.79-7.94-5.78c-2.12-1.6-4.21-3.25-6.25-5L352.11,90s-.06-.06-.1-.08l.12.06,1.6.9c2.28,1.3,4.5,2.69,6.71,4.1,2.76,1.77,5.45,3.61,8.14,5.47s5.33,3.79,7.93,5.78S381.7,110.19,384.18,112.36Z" style="fill:#fff"/><ellipse cx="195.47" cy="442.79" rx="143.19" ry="11.09" style="fill:#ebebeb"/><line x1="243.44" y1="137.56" x2="243.44" style="fill:none;stroke:#c7c7c7;stroke-miterlimit:10"/><polygon points="202.62 176.91 205.9 184.13 280.99 184.13 284.26 176.91 252.29 154.78 234.58 154.78 202.62 176.91" style="fill:#ffc727"/><polygon points="232.37 133.47 234.58 154.78 252.29 154.78 254.51 133.47 232.37 133.47" style="fill:#ffc727"/><polygon points="202.62 176.91 205.9 184.13 280.99 184.13 284.26 176.91 202.62 176.91" style="opacity:0.1"/><polygon points="234.58 154.78 234.35 152.49 252.67 151.17 252.29 154.78 234.58 154.78" style="opacity:0.1"/><line x1="175.31" y1="94.27" x2="175.31" style="fill:none;stroke:#c7c7c7;stroke-miterlimit:10"/><polygon points="134.49 133.62 137.77 140.84 212.85 140.84 216.13 133.62 184.16 111.5 166.45 111.5 134.49 133.62" style="fill:#ffc727"/><polygon points="164.23 90.18 166.45 111.5 184.16 111.5 186.38 90.18 164.23 90.18" style="fill:#ffc727"/><polygon points="134.49 133.63 137.77 140.84 212.86 140.84 216.13 133.63 134.49 133.63" style="opacity:0.1"/><polygon points="166.45 111.5 166.2 109.03 184.54 107.84 184.16 111.5 166.45 111.5" style="opacity:0.1"/><path d="M42.79,427.28l166.59.71c40.49-31.79,44.68-78.9,15.79-107.45-17.48-17.27-39.68-13.79-60.82-16.54h-.06c-7.37-1-14.59-2.67-21.45-6.29-21.76-11.48-34-38.57-52.35-61.36-2.28-2.85-4.66-5.63-7.17-8.31-15.06-16.08-45-16.6-60.7,6C-17.22,291.47,1,377,42.79,427.28Z" style="fill:#ffc727"/><path d="M39.1,295.85c4.36,68.35,83.29,93.86,132.59,73.39,42.86-17.81,28.84-58.44-7.34-65.24h-.06c-7.37-1-14.59-2.67-21.45-6.29-21.76-11.48-34-38.57-52.35-61.36C63.21,222.17,35.89,245.81,39.1,295.85Z" style="opacity:0.1"/><path d="M346.67,313.7a93,93,0,0,1,2.14-15c1.06-4.45,2.57-9,5.38-12.69a16.11,16.11,0,0,1,10.53-6.56c4.12-.5,8,1.34,11.08,3.93,3.83,3.22,6.75,7.49,9.5,11.62a141.53,141.53,0,0,1,8.21,14.36c.08.16-.17.3-.25.14a89,89,0,0,0-7.34-12,75.29,75.29,0,0,0-8.45-10.23c-2.83-2.76-6.43-5.35-10.53-5.48s-7.85,2.16-10.31,5.31c-2.75,3.52-4.15,7.91-5.19,12.19a91.11,91.11,0,0,0-2.12,14.32c-.8,9.91-1,19.88-1.25,29.81q-.18,8.43-.25,16.87,0,4.27-.07,8.55a52.74,52.74,0,0,1-.33,8.24c-.09.55-1,.5-1.09,0a49.67,49.67,0,0,1-.38-7.81q-.06-4.05-.09-8.1c-.05-5.25-.08-10.5-.06-15.75C345.83,334.79,346,324.22,346.67,313.7Z" style="fill:#263238"/><path d="M360.83,306.23c.53-2.8,1.47-6.45,3.07-8.62,2.87-3.9,6-2.21,3.1,2.11a25.78,25.78,0,0,0-4,10.65s4.83,6.89,10.64,10.28c-.24-2.65-1-6.72-.47-10.65,1.11-8.51,6.26-8,5-1.27-1,5.42-1.44,11.18-1.17,13.67a29.09,29.09,0,0,0,6.22,3.05c-.33-1-.69-2.17-1.08-3.61-2.06-7.63,3-10,3.19-5.71a60.77,60.77,0,0,0,2,10.82c2.8.94,5.11,1.58,6.52,2.07a23.93,23.93,0,0,1,9.55,6.52,30.35,30.35,0,0,0,6.5-8.41c-1.78-1.53-4.59-3.8-8.49-6.56-7.32-5.16-4.77-11.68,1-7.63,4.19,2.93,7.43,8.35,8.9,11.13a45.2,45.2,0,0,0,3.32-15.23c-5.75-5.39-19.95-12.91-15.67-12.91,3.85,0,12.47,5.66,15.64,7.83a41.2,41.2,0,0,0-.49-4.42c-5.41-3.55-23-9.06-20.19-10.65,3.08-1.74,15.34,3.94,19.05,5.73a22.31,22.31,0,0,0-3.25-6.73c-7.47-10-20.95-13.45-26.84-11.55-4.16,1.35-2.94,11.91-3.84,11.55C362.29,281,354.68,285.72,360.83,306.23Zm41-1.16c1.18-1.43,6.67,2.79,5.08,5.09S400.29,306.91,401.82,305.07Zm-28.68-9c1.45.92-.68,6.25-2.91,4.64C368.34,299.33,371.69,295.14,373.14,296.07Z" style="fill:#ffc727"/><path d="M375.33,297.7c.76-1.49,1.55-3,2.41-4.41a25.62,25.62,0,0,1,2.76-4c-.24-.29-.47-.59-.72-.88-.1-.12.08-.28.18-.17.28.32.55.65.82,1a.26.26,0,0,1,.11.14c1,1.24,2,2.51,2.94,3.81a45.73,45.73,0,0,1,4.86,1.41c1.64.55,3.26,1.12,4.85,1.79.17.07.09.35-.08.27-1.58-.69-3.18-1.37-4.82-1.92s-3.12-.93-4.69-1.37c.51.72,1,1.44,1.5,2.18A58,58,0,0,1,394,299c2.9,1.38,5.7,3,8.47,4.59.16.09,0,.34-.14.24a93.33,93.33,0,0,0-8.43-4.36c-2.69-1.26-5.47-2.29-8.19-3.49,6.83,10.65,10.93,22.95,16.4,34.33.08.17-.18.3-.25.14-1.67-4-3.59-7.88-5.41-11.81-1.64-3.53-3.23-7.07-4.87-10.6-.48-1-1-2.06-1.47-3.08.3,5.69.18,11.48,1.11,17.1a.14.14,0,1,1-.28,0c-.39-6.08-1.47-12.07-1.42-18.18,0,0,0-.05,0-.08-1.16-2.33-2.39-4.62-3.72-6.85-2.27,5.32-4.65,10.73-5.7,16.45,0,.18-.32.1-.27-.08,1.54-5.73,3-11.47,5.72-16.77a65.21,65.21,0,0,0-4.8-6.93c-.76,1.41-1.74,2.75-2.6,4.1s-1.67,2.65-2.45,4a58.18,58.18,0,0,0-4.27,9c-.06.17-.34.08-.27-.08C372.52,303.7,373.84,300.65,375.33,297.7Z" style="fill:#263238"/><path d="M321.51,310.66c4.38-4.4,9.48-10.16,16.25-10.15,6.53,0,11.34,5.27,14.11,10.7,2.89,5.68,3.92,12.11,4.74,18.36a221.29,221.29,0,0,1,1.73,22.57c.12,4.19.11,8.39,0,12.58a83,83,0,0,1-1,12.69c-.12.67-1.21.7-1.25,0-.19-3.53-.05-7.08,0-10.61s0-7-.17-10.43q-.37-10.54-1.59-21c-.72-6.11-1.29-12.38-3.12-18.28-1.65-5.32-4.74-11.4-10.13-13.74-7.36-3.18-14.54,2.64-19.36,7.56C321.61,311,321.38,310.79,321.51,310.66Z" style="fill:#263238"/><path d="M299.16,320.48h0c0,.9.09,1.78.15,2.65a15.82,15.82,0,0,1,7.18-3c6.21-.66,5.82,4.06,1.66,4.26a23.6,23.6,0,0,0-8.53,1.71c1,8.21,3.27,14.81,3.61,14.9A119.47,119.47,0,0,0,319.66,339c-1.54-3.3-5.06-7.68-3.27-8s3.76,3.54,4.75,7.73a78.59,78.59,0,0,0,11.95-3.29c-2.73-2.37-7-5.32-5.35-6.57s5,2.89,7,5.91a24.48,24.48,0,0,0,5.16-2.88c-3.68-5.42-12.67-6.52-11.49-10.43s9.57,1.51,13.35,8.76c4.43-4.6,5.72-11.1,5.26-16.66-3.86-.45-11.29.37-10.75-2.4s5.9-2.25,10.3-.63a15.43,15.43,0,0,0-2.58-6.11c-4.07-5.22-16.48,1.42-16.48,1.42s1.33-12.48-3.41-14.63c-2.73-1.24-7.54-1.23-12.37,1.61,2.71.23,6,1.09,7.3,3,1.68,2.39-1,3.7-2.67,2.59-1.18-.78-3.4-3.25-7.41-3.58a26.86,26.86,0,0,0-5.79,7,17,17,0,0,1,14.53.26c5.38,2.67,2.38,8.26-2.25,6.09s-9-4.31-13.95-3.08A34.64,34.64,0,0,0,299.12,319a24.35,24.35,0,0,1,8-3.83c5.35-1.4,7,1.79,1.09,2.39A23.35,23.35,0,0,0,299.16,320.48Zm6.51-8.59c-.37-1.74,3.42-2.23,4.06-.83C310.25,312.26,306,313.62,305.67,311.89Zm32.46,9.6c.36-.95,2.9.13,2.67,1.31C340.48,324.37,337.79,322.43,338.13,321.49Zm-17.92,6.08c1.85-.74,4.74,3.86,2.72,4.91S318.7,328.18,320.21,327.57Z" style="fill:#ffc727"/><path d="M304,340.09c2.79-4.66,5.54-9.34,8.47-13.92q2-3.19,4.28-6.27l-.67-.16-1.11-.21c-.85-.15-1.72-.27-2.58-.36s-1.63-.13-2.45-.14a12.1,12.1,0,0,0-2.62.14c-.1,0-.12-.14,0-.14.87,0,1.76-.08,2.64-.09s1.69,0,2.54.06a23.81,23.81,0,0,1,2.37.25c.43.06.87.14,1.3.22a6.76,6.76,0,0,1,.78.17c1.51-2.08,3.08-4.11,4.7-6.11a56.27,56.27,0,0,0-15.26-4.87c-.09,0-.06-.15,0-.14a51.75,51.75,0,0,1,15.49,4.7c.89-1.09,1.78-2.18,2.69-3.27s2.08-2.4,3-3.68c.06-.09.18,0,.11.08a53,53,0,0,0-3.54,4.33h0a53.78,53.78,0,0,1,5.67,4.55q2.79,2.47,5.43,5.1c.06.06,0,.16-.1.1-1.74-1.73-3.54-3.38-5.43-4.95s-3.87-3-5.76-4.55a0,0,0,0,1,0,0l-1.3,1.71-.66.86-.05.06-2.16,2.84a22,22,0,0,1,2.15,3.89c.63,1.31,1.17,2.67,1.67,4a58.32,58.32,0,0,1,2.33,8.74c0,.08-.12.12-.14,0a51.12,51.12,0,0,0-2.54-8.57c-.54-1.42-1.15-2.81-1.79-4.2s-1.28-2.47-1.82-3.75c-.63.83-1.25,1.67-1.86,2.51-.18.24-.35.49-.53.74a.08.08,0,0,1-.06.13h0c-1.91,2.67-3.74,5.41-5.51,8.18a2.59,2.59,0,0,1,.24.6c.12.34.22.68.32,1a21,21,0,0,1,.49,2.08c.12.65.21,1.32.28,2a18.93,18.93,0,0,0,.16,2.26c0,.11-.15.12-.13,0a7.1,7.1,0,0,0-.16-2.1c-.1-.72-.23-1.44-.4-2.15s-.32-1.28-.51-1.91c-.1-.31-.2-.63-.31-.94s-.14-.34-.19-.51c-.83,1.3-1.65,2.6-2.46,3.92-1.61,2.61-3.2,5.22-4.8,7.83A.12.12,0,0,1,304,340.09Z" style="fill:#263238"/><path d="M347,375.9c.08-2.64.49-5.3.78-7.93s.59-5.28.87-7.92c.54-5.09.84-10.29,2-15.28a22.16,22.16,0,0,1,6.22-11.42,10.07,10.07,0,0,1,6.09-2.91,10.51,10.51,0,0,1,6.47,2,22.55,22.55,0,0,1,5.45,5.74,55.85,55.85,0,0,1,4.24,6.89c.05.09-.09.15-.14.06a35.32,35.32,0,0,0-9.19-10.29,10.86,10.86,0,0,0-5.78-2.41,7.82,7.82,0,0,0-5.62,2.24c-3.08,2.68-4.86,6.62-5.92,10.49-1.26,4.58-1.67,9.41-2.3,14.11-.37,2.79-.73,5.59-1.1,8.39s-.6,5.63-1.19,8.37A.46.46,0,0,1,347,375.9Z" style="fill:#263238"/><path d="M360,355.38a14.74,14.74,0,0,0,2.88,2.93c-.44-2.57-1-7.16.34-9.59,2-3.79,4.41-1.9,3.21,1.39a26.64,26.64,0,0,0-1.95,9.34,41,41,0,0,0,8.78,4.14,14.72,14.72,0,0,1-.29-4.52c.4-4.05,3.5-4,2.7.24a25.6,25.6,0,0,0-.43,4.95,91.88,91.88,0,0,0,13.68,3.08,40.09,40.09,0,0,0,5.66-10.08c-3.29-.82-10-1-9.83-3.37.19-3.17,6.66-.73,10.44,1.57a25.12,25.12,0,0,0,1.14-8.53,42.62,42.62,0,0,0-9.09-1.5c-6.79-.59-6.45-4.44-1.53-4.35,3.63.07,8.22,2.29,10.39,3.45-1.41-9.24-8.46-15.15-14.1-15.38-9.5-.38-6.08,11.43-6.08,11.43s-6.43-4.52-12.5-4.4S353.47,346.35,360,355.38Zm25.35-17.08c-.21-1.33,4-1.65,4.25.06C389.81,340.27,385.53,339.65,385.31,338.3Zm6.82,13.86c-.09-.87,1.74-1,2.16.07C394.56,353,392.2,353,392.13,352.16Zm-22.79.81c1.43.2,2.24,5.32-.22,5.22C367.24,358.11,368.12,352.8,369.34,353Z" style="fill:#ffc727"/><path d="M371.32,358.65c.23-.64.44-1.28.64-1.93-.18.65-.34,1.31-.47,2A.09.09,0,1,1,371.32,358.65Z" style="fill:#263238"/><path d="M373.82,350.43c.45-1.31.95-2.61,1.46-3.9.27-.68.55-1.37.85-2a8.52,8.52,0,0,1,.85-1.71,13,13,0,0,1-.77-1.66.05.05,0,0,1,.09-.05,20.37,20.37,0,0,1,1.85,2.87c.26.44.51.9.77,1.35a12.65,12.65,0,0,1,1.6.25c.56.1,1.13.22,1.7.35s1.13.25,1.69.39,1.11.32,1.68.4a.09.09,0,1,1,0,.18,10.71,10.71,0,0,0-1.77-.46c-.55-.12-1.09-.22-1.65-.29s-1.1-.15-1.65-.21l-1.26-.1c.23.4.46.79.68,1.19a1.86,1.86,0,0,1,.1.2,5.29,5.29,0,0,1,1.37.16c.49.09,1,.18,1.46.29,1,.22,2,.45,3,.72,2.05.58,4.08,1.23,6.11,1.89.11,0,0,.21-.08.17a61.8,61.8,0,0,0-6.13-1.7c-1-.22-1.94-.44-2.92-.64l-1.46-.31a9,9,0,0,1-1.14-.26q1.57,2.89,2.94,5.9c2,4.35,3.62,8.84,5.31,13.31,0,.11-.13.18-.17.07a122,122,0,0,0-5.65-13c-.38-.78-.77-1.54-1.16-2.32,0,.16-.07.32-.1.48-.09.52-.19,1.05-.28,1.58-.17,1.06-.36,2.12-.51,3.18a37.73,37.73,0,0,0-.77,6.6.09.09,0,1,1-.18,0,31.28,31.28,0,0,0,.23-3.21c.07-1.12.16-2.23.28-3.33s.26-2.13.44-3.19c.09-.53.18-1.06.28-1.59a3.21,3.21,0,0,1,.3-1.15c-.56-1.11-1.11-2.23-1.67-3.34s-1.06-2.09-1.61-3.12c-.22-.44-.47-.88-.72-1.33a13,13,0,0,1-.63,1.6c-.24.6-.48,1.2-.73,1.8-.54,1.32-1.05,2.66-1.56,4-.71,1.9-1.51,3.84-2.1,5.82C372.68,354.32,373.17,352.34,373.82,350.43Z" style="fill:#263238"/><path d="M372,356.72c.05-.16.1-.31.14-.46C372.06,356.41,372,356.56,372,356.72Z" style="fill:#263238"/><polygon points="331.09 370.76 331.76 384.89 333.48 421.31 371.05 421.31 372.77 384.89 373.44 370.76 331.09 370.76" style="fill:#37474f"/><polygon points="331.09 370.76 331.76 384.89 372.77 384.89 373.44 370.76 331.09 370.76" style="fill:#263238"/><rect x="328.42" y="365.05" width="47.69" height="11.43" transform="translate(704.53 741.52) rotate(180)" style="fill:#37474f"/><rect x="361.41" y="421.31" width="6.6" height="5.98" style="fill:#37474f"/><rect x="361.41" y="421.31" width="6.6" height="2.99" style="fill:#263238"/><rect x="336.52" y="421.31" width="6.59" height="5.98" style="fill:#37474f"/><rect x="336.52" y="421.31" width="6.59" height="2.99" style="fill:#263238"/><polygon points="0 427.44 52.34 427.2 104.69 427.11 209.37 426.94 314.06 427.11 366.4 427.2 418.75 427.44 366.4 427.69 314.06 427.77 209.37 427.94 104.69 427.77 52.34 427.69 0 427.44" style="fill:#263238"/><path d="M171.07,289.42s44.27,18,74-2.6c41.59-28.81,33.49-79.44,21.52-88.3s-26.46,6.32-10.94,20.8c15.15,14.13,42.32,13.78,55.56-8.39s2.37-49.26,33.52-59.88" style="fill:none;stroke:#263238;stroke-miterlimit:10;stroke-width:0.75px;stroke-dasharray:4,5"/><polygon points="342.59 135.44 334.93 156.46 351 143.91 412.42 121.64 342.59 135.44" style="fill:#ffc727"/><polygon points="342.59 135.44 334.93 156.46 351 143.91 412.42 121.64 342.59 135.44" style="opacity:0.1"/><polygon points="353.06 148.81 334.93 156.46 351 143.91 353.06 148.81" style="fill:#263238"/><polygon points="351 143.91 412.42 121.64 362.04 170.8 351 143.91" style="fill:#ffc727"/><polygon points="342.59 135.44 317.06 118.96 412.42 121.64 342.59 135.44" style="fill:#ffc727"/><path d="M195.92,438c-2.57-.94-60.62-47.34-61.72-50.51-.42-1.2,5.84-10,13.72-20.53,1.7-2.26,3.47-4.59,5.28-6.94,11.73-15.29,24.53-31.23,24.53-31.23l38.93,30.92-25.61,30.39-5.62,6.67s14.29,27.71,15.12,31.31S198.49,439,195.92,438Z" style="fill:#d3766a"/><path d="M195.92,438c-2.56-1-60.62-47.34-61.72-50.51-.34-1,3.74-7,9.51-14.87,8.44,10.09,37.88,40.13,45.91,44.15,5.11,2.55,4.09-2.46,2.19-7.44,3.92,7.83,8.28,16.8,8.74,18.74C201.36,431.72,198.5,439,195.92,438Z" style="fill:#263238"/><path d="M256,300.29c-2.67,20.22-52.51,78.6-58.27,85.3l-1.31,1.52-41.23-31.68.48-.61L192,307.28s-60,35-90.07,19.13c-13.48-7.14-23.49-19.83-23.49-19.83l39.21-20.9s10.84,3.51,17.78,2.5c23.9-3.5,77.45-23.83,90.15-23.32C241.92,265.53,258.42,281.73,256,300.29Z" style="fill:#37474f"/><path d="M205,289.61a49.87,49.87,0,0,0-3.75,4.8c-1.28,1.69-2.58,3.35-3.86,5l0,.05c.23-.5.45-1,.68-1.48.81-1.68,1.46-3.41,2.42-5a.09.09,0,1,0-.15-.09c-1,1.59-2.13,3.1-3,4.77-.39.79-.77,1.59-1.12,2.4-.19.44-.39.89-.56,1.34a4.14,4.14,0,0,0-.23.65c-.58.78-1.15,1.56-1.7,2.36-1.22,1.77-2.3,3.64-3.54,5.4-.06.09.09.18.16.09,1.25-1.65,2.65-3.19,3.93-4.83s2.52-3.38,3.73-5.11,2.35-3.39,3.53-5.08a50.56,50.56,0,0,0,3.57-5.21C205.13,289.63,205,289.56,205,289.61Z" style="fill:#263238"/><path d="M71.86,231.29c-.54,12.06-3.23,26.45,1.88,37.87,4,8.95,12.45,15,21.18,18.84,19.19,8.49,46.07,9.6,59.52-9.46,5.37-7.61,6.28-23.47-2.62-29.27-4.58-3-10-3.66-15.18-5.06a22,22,0,0,1-14.9-12c-6.16-12.37-4.93-21.42-6.11-34.8a9.55,9.55,0,0,0-3.26-7,17,17,0,0,0-7.94-4.41,16.76,16.76,0,0,0-8.12-1.34c-5.93.62-11.62,6.08-16.2,9.48s-6.77,7-7.13,12.87C72.49,215.08,72.23,223.19,71.86,231.29Z" style="fill:#263238"/><path d="M70.37,237c1.21-11,2.64-22,4-33a.06.06,0,0,1,.11,0c-.85,9.08-1.58,18.17-2.55,27.24-1,8.9-2.54,18-2.71,26.93-.38,20.09,20.27,28.26,37.35,27.28.78,0,.76,1.2,0,1.22-15,.39-33-4.74-37.49-21.07C66.57,256.64,69.38,246,70.37,237Z" style="fill:#263238"/><path d="M114.66,196.35a.17.17,0,0,1,.33,0c.51,11,.06,24,6.35,33.59a28,28,0,0,0,12.8,10.58c4.14,1.69,8.54,1.84,12.88,2.69,17,3.33,17.12,26.23,4.8,35.16-.26.19-.59-.25-.34-.45,8.67-6.91,11.53-19.48,4.46-28.7-5.68-7.4-16.58-5-24.32-9C115.58,231.9,114.32,212.39,114.66,196.35Z" style="fill:#263238"/><path d="M97.3,244.33c7.34,10.54,32.41,39.5,49.81,43.46,9.59,2.19,55.92,8.67,62.27,2.89,7.43-6.77,4-32.27-1.93-32.5-18-.71-51.43,2.82-59.78,1-3.77-.84-23.77-13.74-45.13-24.06C94.47,231.2,92.57,237.53,97.3,244.33Z" style="fill:#d3766a"/><path d="M115.22,269.59l7-25.79s-11.75-6.52-18.76-9.21c-9.27-3.56-12.77-1-7.08,9.82C100.19,251.62,115.22,269.59,115.22,269.59Z" style="fill:#ebebeb"/><path d="M113.49,266.31c.76-3.82,1.57-7.63,2.56-11.4.49-1.88,1-3.76,1.55-5.62s1.29-3.68,1.81-5.55a.08.08,0,0,1,.16,0c-.62,1.84-1,3.78-1.51,5.65s-1,3.75-1.52,5.63c-1,3.76-2,7.52-2.89,11.29C113.62,266.47,113.47,266.42,113.49,266.31Z" style="fill:#263238"/><path d="M121.13,247.86l-5.9,21.74s-15-18-18.85-25.19c-1.75-3.33-2.63-5.88-2.74-7.7Z" style="fill:#263238"/><path d="M59.58,315.71c2.3.75,67.84-18.22,67.84-18.22l-7.74-22.75s3.82-7.32,2-14.36c-2.37-9.4-19.78-24.86-21.15-25.77C95.09,231,89.94,231,85.39,233.45,66.44,243.52,59.58,315.71,59.58,315.71Z" style="fill:#ebebeb"/><path d="M109.57,242.8c1.69,2,3.5,3.84,5.25,5.76-.82-1.43-1.62-2.87-2.49-4.28,0,0,0-.06,0,0a32.41,32.41,0,0,1,3.33,5.29,43.74,43.74,0,0,1,3.61,4.62,20.69,20.69,0,0,1,3,6.34,17.47,17.47,0,0,1,.19,7,44.57,44.57,0,0,1-2.21,7.84c-.12.34-.6.12-.51-.21,1.23-4.44,2.63-9.13,1.64-13.77s-3.84-8.46-6.63-12.11a66,66,0,0,0-5.33-6.36C109.36,242.83,109.5,242.72,109.57,242.8Z" style="fill:#263238"/><path d="M98.65,273.1a58.42,58.42,0,0,1,8.54-1c1.43,0,2.84,0,4.27.07.7,0,1.41,0,2.12,0a9.1,9.1,0,0,0,2.21-.2.05.05,0,0,1,0,.1,15.66,15.66,0,0,1-2,.53,15.16,15.16,0,0,1-2,.18c-1.44,0-2.89,0-4.33.06-2.92.06-5.83.12-8.74.4C98.55,273.35,98.52,273.12,98.65,273.1Z" style="fill:#263238"/><path d="M92.54,277.44a63.18,63.18,0,0,1,6.73-2.24c1.14-.31,2.29-.54,3.46-.75.56-.1,1.11-.19,1.67-.27s1.25-.1,1.86-.2c.06,0,.09.09,0,.1-.57.11-1.13.32-1.7.46l-1.71.43c-1.15.29-2.29.6-3.43.88-2.3.56-4.57,1.14-6.85,1.78C92.47,277.66,92.43,277.48,92.54,277.44Z" style="fill:#263238"/><path d="M89.49,234.73c.26,1.19,5.8,9,11.22,8.78,1.77-.06,1.87-9.7,1.87-9.7l.17-.71,2.37-9.95-13.29-8.71S89.38,234.22,89.49,234.73Z" style="fill:#d3766a"/><path d="M105.12,223.14l-2.37,10A20.55,20.55,0,0,1,91,221.2c.41-3.43.76-6.28.8-6.7a.28.28,0,0,0,0-.06l1.69,1Z" style="fill:#263238"/><path d="M118,204.82c4.42,17.4-5.49,22-9.25,23-3.4.86-15.11,3.37-21.31-13.47s.49-24.4,8.17-26.79S113.59,187.43,118,204.82Z" style="fill:#d3766a"/><path d="M114.67,202.66c-.42,0-.81,0-1.24,0a2,2,0,0,1-1.25-.28.64.64,0,0,1-.14-.77,1.58,1.58,0,0,1,1.47-.64,2.33,2.33,0,0,1,1.58.55A.68.68,0,0,1,114.67,202.66Z" style="fill:#263238"/><path d="M103,206.32c.41-.13.76-.31,1.15-.47a2,2,0,0,0,1.08-.7.64.64,0,0,0-.14-.77,1.58,1.58,0,0,0-1.6-.09,2.36,2.36,0,0,0-1.29,1.07A.69.69,0,0,0,103,206.32Z" style="fill:#263238"/><path d="M106,208.51s-.09.07-.07.12c.28,1.19.4,2.6-.6,3.22,0,0,0,.08,0,.06C106.6,211.46,106.42,209.59,106,208.51Z" style="fill:#263238"/><path d="M104.63,207.48c-1.95.25-1.31,4.14.5,3.91S106.27,207.27,104.63,207.48Z" style="fill:#263238"/><path d="M103.9,207.81c-.3.27-.57.72-1,.83s-.89-.23-1.26-.57c0,0-.07,0-.06.06.11.75.52,1.46,1.34,1.44s1.16-.76,1.23-1.54C104.18,207.88,104,207.7,103.9,207.81Z" style="fill:#263238"/><path d="M112.87,207s.11.05.11.1c.15,1.21.53,2.57,1.69,2.8,0,0,0,.07,0,.07C113.3,209.94,112.82,208.13,112.87,207Z" style="fill:#263238"/><path d="M113.75,205.52c1.92-.45,2.69,3.42.91,3.84S112.14,205.9,113.75,205.52Z" style="fill:#263238"/><path d="M114.61,205.62c.35.14.72.46,1.09.41s.66-.54.85-1c0,0,.06,0,.07,0,.17.73.08,1.55-.61,1.83s-1.22-.28-1.54-1C114.41,205.79,114.47,205.56,114.61,205.62Z" style="fill:#263238"/><path d="M107.56,219.21c.32.26.65.62,1.09.62a3.09,3.09,0,0,0,1.28-.43s.08,0,.06.06a1.62,1.62,0,0,1-1.48.8,1.3,1.3,0,0,1-1.06-1C107.43,219.2,107.52,219.17,107.56,219.21Z" style="fill:#263238"/><path d="M112,213.69s.52,1.77.65,2.62c0,.08-.19.15-.48.21,0,0,0,0,0,0a4.1,4.1,0,0,1-4.16-.93.09.09,0,0,1,.11-.14A6.14,6.14,0,0,0,112,216c0-.24-1-3-.86-3a7.88,7.88,0,0,1,2,.16c-1-3.72-2.53-7.25-3.44-11a.12.12,0,0,1,.22-.09,62.31,62.31,0,0,1,4.2,11.64C114.21,214.17,112.37,213.79,112,213.69Z" style="fill:#263238"/><path d="M112.08,216.19a5,5,0,0,1-1.57,2,2.2,2.2,0,0,1-1.31.42c-1,0-1.26-.89-1.28-1.69a5.62,5.62,0,0,1,.14-1.26A6.54,6.54,0,0,0,112.08,216.19Z" style="fill:#263238"/><path d="M110.51,218.18a2.2,2.2,0,0,1-1.31.42c-1,0-1.26-.89-1.28-1.69A2.34,2.34,0,0,1,110.51,218.18Z" style="fill:#ff9cbd"/><path d="M88.71,215.61c1.87-.62,5.42-7.18,3.11-16.41,0,0,1.5,8.43,1.21,9.8s2-3.68.22-11.15a31.28,31.28,0,0,0,8.66,1.91c3.76,0,5.89-.56,6.07-.88s-5.4-.57-7.22-1.8c0,0,10.47,1.83,14.84,1,.51-.09-1.63-10.45-9.42-13S89.13,190,87,193.5c0,0-3.19,1.36-5.48,7.23S86.69,216.28,88.71,215.61Z" style="fill:#263238"/><path d="M90.57,214.94s-4.78-4.89-7.06-3.1,1.94,9.32,5.07,9.93a3,3,0,0,0,3.74-2.26Z" style="fill:#d3766a"/><path d="M84.78,214a0,0,0,0,0,0,.08c2.2.49,3.61,2.23,4.69,4.09a1.67,1.67,0,0,0-2.54,0s0,.12.07.1a1.85,1.85,0,0,1,2.13.31A8.39,8.39,0,0,1,90.36,220c.13.17.45,0,.34-.19l0,0C90.3,217.12,87.65,213.77,84.78,214Z" style="fill:#263238"/><path d="M76,249.48c-5.27,29.89-.18,52.28,4.9,55.06,13.67,7.46,46.49-7.68,55.75-10.69,3.74-1.21-13.32-29.84-17.14-28.07-9,4.16-21.61,11.22-22.12,11.16-1-.1-2.2-7.73-7.42-30C85.76,229,78.17,237.26,76,249.48Z" style="fill:#d3766a"/><path d="M166.51,251.61c.94,3.76-8.51,5.28-8.51,5.28a7.18,7.18,0,0,1,3.74,3.1c1.38,2.6-2.09,5.89-2.09,5.89a8.86,8.86,0,0,1,3.43,3.89c1.06,2.62-2,6.45-2,6.45a7.75,7.75,0,0,1,.87,5.32c-1.16,4.82-8.55,6.72-12.89,8.8-4.66,2.23-12.35,3.05-15.85,4.62l-15.13-27.72s14.62-15.48,23-17.88C145.7,248,165.08,245.87,166.51,251.61Z" style="fill:#d3766a"/><path d="M157.89,256.81c-5.26-.23-10.56.8-15.67,1.85-.12,0-.08.2,0,.17,5.07-1.1,10.56-.87,15.66-1.77A.13.13,0,0,0,157.89,256.81Z" style="fill:#263238"/><path d="M159.42,265.54a13.74,13.74,0,0,0-3.53.65c-1.23.32-2.46.66-3.68,1-2.45.72-4.87,1.49-7.28,2.33-.1,0-.07.21,0,.18,2.44-.71,4.89-1.38,7.35-2,1.23-.31,2.47-.6,3.71-.89a16.43,16.43,0,0,0,3.46-1A.18.18,0,0,0,159.42,265.54Z" style="fill:#263238"/><path d="M161,276.25a9.43,9.43,0,0,0-3.15.76l-3.32,1c-2.22.68-4.44,1.35-6.69,1.95-.11,0-.07.21,0,.18,2.28-.6,4.57-1.16,6.85-1.78,1.12-.3,2.23-.61,3.35-.93a8.81,8.81,0,0,0,3-1.1A.07.07,0,0,0,161,276.25Z" style="fill:#263238"/><path d="M97.41,276.94c3.58-2.06,7.22-4,10.86-6l5.5-2.86,2.78-1.39a25.84,25.84,0,0,1,2.9-1.29l-.17.1c2.44-2.37,4.89-4.72,7.47-6.93,1.29-1.11,2.59-2.21,3.93-3.24a30.74,30.74,0,0,1,4.24-2.84,34.66,34.66,0,0,0-4,3.1c-1.29,1.1-2.56,2.22-3.79,3.38-2.46,2.32-4.94,4.64-7.32,7l-.05.05-.13.05c-.85.31-1.83.82-2.74,1.24l-2.78,1.36-5.54,2.77C104.85,273.33,101.15,275.18,97.41,276.94Z" style="fill:#263238"/><path d="M70.93,275.48l23.89-12s-3-13.1-5.66-20.12c-3.54-9.28-7.82-10.14-12,1.28C74.29,252.29,70.93,275.48,70.93,275.48Z" style="fill:#ebebeb"/><path d="M72.22,272c3.36-2,6.73-3.92,10.2-5.7q2.6-1.34,5.23-2.6c1.75-.83,3.59-1.49,5.33-2.35a.08.08,0,0,1,.07.15c-1.78.76-3.47,1.78-5.21,2.65s-3.48,1.74-5.21,2.63c-3.46,1.77-6.92,3.53-10.34,5.38C72.19,272.2,72.13,272.05,72.22,272Z" style="fill:#263238"/><path d="M73.79,274c-.91.56-1.84,1.08-2.77,1.61l-.32.19,0-.39c.36-3.31.83-6.59,1.41-9.86s1.26-6.53,2.14-9.73c-.19,1.65-.42,3.29-.66,4.93s-.49,3.28-.76,4.92q-.78,4.91-1.74,9.8l-.28-.21C71.82,274.88,72.8,274.44,73.79,274Z" style="fill:#263238"/><path d="M73,259.15a19.69,19.69,0,0,1,.06,2.3,19.47,19.47,0,0,1-.2,2.29,19.62,19.62,0,0,1,0-2.3A22.09,22.09,0,0,1,73,259.15Z" style="fill:#263238"/><path d="M91.91,265a32,32,0,0,1,2.85-1.53c-.39-1.54-.8-3.06-1.18-4.6-.18-.77-.36-1.54-.52-2.31s-.42-1.82-.58-2.57a.08.08,0,1,1,.16-.05c.3,1,.49,1.69.75,2.52s.44,1.5.64,2.25c.41,1.59.93,3.27,1.26,4.88A25.85,25.85,0,0,1,92,265,.05.05,0,0,1,91.91,265Z" style="fill:#263238"/><path d="M93.82,255a8.52,8.52,0,0,1,0,2.85,7.88,7.88,0,0,1,0-2.85Z" style="fill:#263238"/><rect x="118.23" y="292.39" width="69.54" height="3.12" style="fill:#c7c7c7"/><polygon points="133.11 292.39 130.73 295.51 187.77 295.51 187.77 292.39 133.11 292.39" style="fill:#a6a6a6"/><polygon points="136.08 295.5 203.85 295.5 209.49 249.48 141.72 249.48 136.08 295.5" style="fill:#c7c7c7"/><path d="M168.66,272.49a4,4,0,0,0,4.05,4.13,4.22,4.22,0,0,0,4.2-4.13,4,4,0,0,0-4-4.12A4.21,4.21,0,0,0,168.66,272.49Z" style="fill:#fff"/><path d="M208.94,253.93c2.56,3.94,8.86,8.55,9.73,11.93a4,4,0,0,1-1.65,4.49s3.66,1.26,3.94,4.46c.14,1.64-2.36,3.32-2.36,3.32s2.88,1.13,3,4c.06,2.28-2.46,3.62-2.46,3.62s2.26,2.38,1.57,4.72c-1.38,4.75-20.78,7.31-24.72.56-1.84-3.14,2.93-3.51,2.93-3.51s-7-1.13-7.62-5.12,5.6-4.09,5.6-4.09-6.77-1.15-7-5.35c-.24-4.37,6-3.4,6-3.4s-4.7-2.36-4.15-5.62c.92-5.37,12,.34,16.11-1.23Z" style="fill:#d3766a"/><path d="M218.73,286a.05.05,0,0,1,0,.1,33.92,33.92,0,0,1-20.14,1.45c-.21-.06-.21-.42,0-.41A69.4,69.4,0,0,0,218.73,286Z" style="fill:#263238"/><path d="M218.7,278.16c.07,0,.1.1,0,.13-6.37,2.44-14.87,3-22.07.22-.25-.1-.37-.43-.08-.34C201.5,279.68,212.52,279.52,218.7,278.16Z" style="fill:#263238"/><path d="M195.4,269.17c7,2.44,14.09,2.39,21.36,1.29.1,0,.11.12,0,.16-3.41,1.5-8.11,1.72-11.79,1.58a19.52,19.52,0,0,1-9.69-2.78C195.19,269.35,195.25,269.12,195.4,269.17Z" style="fill:#263238"/><path d="M346.43,385.45c-.95,2.57-47.54,60.48-50.71,61.56-1.2.42-10-5.87-20.48-13.78-2.26-1.71-4.58-3.48-6.93-5.3-15.24-11.78-31.15-24.64-31.15-24.64l31-38.82,30.3,25.7,6.65,5.64s27.76-14.19,31.36-15S347.38,382.89,346.43,385.45Z" style="fill:#d3766a"/><path d="M346.43,385.46c-.95,2.56-47.53,60.47-50.7,61.56-1.05.37-7.94-4.4-16.64-10.89,8.88-6.47,42.62-36.86,47.15-45.09,2.39-4.33-1.09-4.3-5.35-3.1,6.95-3.43,13.94-6.75,15.63-7.14C340.12,380,347.38,382.89,346.43,385.46Z" style="fill:#263238"/><path d="M296.89,384.31l-32.31,43.6-109-75.66L145,345s-3,2-7.46,4.48c-6.23,3.44-15.35,7.8-23.42,9-13.54,2-36.14,1.79-47.55-13.47-9.6-12.84-4.39-29.6-4.39-29.6L77.08,309s35.17-29.3,58-30.18c9.68-.39,23.77,7,36.82,14.61S296.89,384.31,296.89,384.31Z" style="fill:#37474f"/><path d="M145,345s-3,2-7.46,4.48c-7.93-9.48-24.7-26.71-25.21-27.32Z" style="fill:#263238"/><path d="M90,299.15c-2.1,1.46-4.13,3-6.21,4.51s-4.14,2.86-6.08,4.47-3.84,3.39-5.7,5.15c-.9.85-1.79,1.71-2.65,2.59a24.49,24.49,0,0,0-2.54,2.75c-.06.09.07.2.16.15a29.48,29.48,0,0,0,2.82-2.3l2.93-2.5c1.89-1.61,3.82-3.17,5.71-4.78s3.61-3.35,5.46-5,4.08-3.36,6.15-5A0,0,0,0,0,90,299.15Z" style="fill:#263238"/><path d="M289.3,382.75c-2.1,2.26-4,4.7-6,7.09s-3.92,4.81-5.85,7.22c-3.88,4.85-7.79,9.66-11.6,14.56-2.09,2.69-4.15,5.4-6.1,8.19a.13.13,0,0,0,.21.16c4.17-4.59,8-9.48,11.85-14.31s7.74-9.71,11.54-14.61c2.08-2.68,4.22-5.35,6.13-8.16C289.57,382.78,289.39,382.65,289.3,382.75Z" style="fill:#263238"/><path d="M199.82,383.2c-5.43-4.28-11-8.32-16.68-12.33s-11.19-8-16.87-11.86c-1.63-1.11-3.27-2.2-4.92-3.29s-3.34-2.1-4.95-3.23c-.09-.06-.18.09-.09.16,1.48,1.06,2.87,2.24,4.32,3.34s2.76,2.11,4.16,3.14c2.72,2,5.47,4,8.22,6q8.36,6,16.85,11.9c3.22,2.2,6.42,4.42,9.71,6.52C199.77,383.65,200,383.34,199.82,383.2Z" style="fill:#263238"/><path d="M234.69,338.21c-5-4.15-10.39-7.89-15.64-11.73s-10.61-7.81-15.94-11.66l-15.88-11.48c-5.13-3.71-10.24-7.48-15.66-10.77-3-1.79-6-3.46-9.14-5a59.57,59.57,0,0,0-9.44-3.86.09.09,0,0,0-.06.17c2.67,1.49,5.48,2.74,8.18,4.18s5.3,2.92,7.89,4.49c5.38,3.27,10.46,7,15.57,10.64,10.6,7.62,21.17,15.28,31.85,22.8,6,4.2,11.82,8.64,18,12.51C234.64,338.66,234.87,338.36,234.69,338.21Z" style="fill:#263238"/><circle cx="189.25" cy="227.92" r="31.2" transform="translate(-66.28 377.81) rotate(-80.69)" style="fill:#ffc727"/><polygon points="207.43 248.07 171.07 248.07 171.07 217.31 189.25 205.77 207.43 217.31 207.43 248.07" style="fill:#a6a6a6"/><polygon points="205.38 247.76 173.12 247.76 173.12 207.35 197.07 207.35 205.38 215.25 205.38 247.76" style="fill:#fff"/><polygon points="197.07 207.35 205.38 215.25 197.07 215.25 197.07 207.35" style="fill:#ebebeb"/><rect x="176.27" y="214.3" width="17.93" height="1.06" transform="translate(370.47 429.67) rotate(180)" style="fill:#dbdbdb"/><rect x="176.27" y="216.99" width="17.93" height="1.06" transform="translate(370.47 435.04) rotate(180)" style="fill:#dbdbdb"/><rect x="176.27" y="219.67" width="17.93" height="1.06" transform="translate(370.47 440.4) rotate(180)" style="fill:#dbdbdb"/><rect x="176.27" y="222.35" width="26.28" height="1.06" transform="translate(378.81 445.77) rotate(180)" style="fill:#dbdbdb"/><rect x="176.27" y="225.04" width="26.28" height="1.06" transform="translate(378.81 451.14) rotate(180)" style="fill:#dbdbdb"/><rect x="176.27" y="227.72" width="26.28" height="1.06" transform="translate(378.81 456.51) rotate(180)" style="fill:#dbdbdb"/><rect x="176.27" y="230.41" width="26.28" height="1.06" transform="translate(378.81 461.88) rotate(180)" style="fill:#dbdbdb"/><rect x="176.27" y="233.09" width="26.28" height="1.06" transform="translate(378.81 467.24) rotate(180)" style="fill:#dbdbdb"/><rect x="176.27" y="235.77" width="26.28" height="1.06" transform="translate(378.81 472.61) rotate(180)" style="fill:#dbdbdb"/><rect x="176.27" y="238.46" width="26.28" height="1.06" transform="translate(378.81 477.98) rotate(180)" style="fill:#dbdbdb"/><rect x="176.27" y="241.14" width="26.28" height="1.06" transform="translate(378.81 483.35) rotate(180)" style="fill:#dbdbdb"/><rect x="176.27" y="243.83" width="26.28" height="1.06" transform="translate(378.81 488.71) rotate(180)" style="fill:#dbdbdb"/><path d="M207.43,225v23.06H171.07V225c1.56.88,3.1,1.81,4.64,2.72s3.08,1.84,4.61,2.78c1.7,1,3.41,2.09,5.1,3.16l.06,0,0,0,3.81,2.39,3.81-2.39,0,0,0,0q2.55-1.59,5.11-3.15c1.53-.94,3.06-1.86,4.6-2.78S205.87,225.89,207.43,225Z" style="fill:#ebebeb"/><path d="M207.43,225c-1.47,1-3,2-4.45,3s-3,2-4.48,3-3.14,2.05-4.72,3.06l-.14.1-4.19,2.67-.2.12-.21-.12-4.18-2.68-.15-.09c-1.57-1-3.15-2-4.71-3.06s-3-2-4.49-3-3-2-4.44-3c1.56.88,3.1,1.81,4.64,2.72s3.08,1.84,4.61,2.78c1.7,1,3.41,2.09,5.1,3.16h0l3.81,2.39,3.81-2.39h0q2.55-1.59,5.11-3.15c1.53-.94,3.06-1.86,4.6-2.78S205.87,225.89,207.43,225Z" style="fill:#dbdbdb"/><path d="M185.48,233.64l0,0-.58.49q-1.37,1.16-2.79,2.22c-1.16.89-2.35,1.73-3.54,2.57s-2.39,1.65-3.62,2.43-2.47,1.56-3.75,2.26c1.1-1,2.25-1.86,3.4-2.74s2.35-1.73,3.54-2.57,2.4-1.65,3.63-2.44c1-.63,2-1.24,3-1.82l.71-.4Z" style="fill:#dbdbdb"/><path d="M207.34,243.64c-1.28-.7-2.53-1.47-3.75-2.26s-2.43-1.6-3.63-2.43-2.38-1.68-3.53-2.57c-1-.71-1.88-1.44-2.79-2.21l-.58-.5,0,0,0,0,.71.41c1,.58,2,1.19,3,1.82,1.23.79,2.43,1.61,3.63,2.44s2.37,1.68,3.53,2.57S206.24,242.68,207.34,243.64Z" style="fill:#dbdbdb"/><circle cx="189.25" cy="221.14" r="7.65" transform="translate(-69.56 354.32) rotate(-76.67)" style="fill:#ffc727"/><path d="M185.35,221.79a34.47,34.47,0,0,1,3.1,2.93l-.7.05c.39-.67.8-1.32,1.21-2s.84-1.29,1.29-1.91a34.31,34.31,0,0,1,2.9-3.62,35.62,35.62,0,0,1-2.13,4.12c-.39.66-.81,1.31-1.23,2s-.85,1.28-1.3,1.91l-.36.49-.34-.44A33.24,33.24,0,0,1,185.35,221.79Z" style="fill:#fff"/></g></g></svg>